control3min_grf.mot
version=1
nRows=22
nColumns 19
inDegrees=yes
endheader
time	1_ground_force_vx	1_ground_force_vy	1_ground_force_vz	1_ground_force_px	1_ground_force_py	1_ground_force_pz	1_ground_torque_x	1_ground_torque_y	1_ground_torque_z	2_ground_force_vx	2_ground_force_vy	2_ground_force_vz	2_ground_force_px	2_ground_force_py	2_ground_force_pz	2_ground_torque_x	2_ground_torque_y	2_ground_torque_z
            2.502500	           -0.227049	           -1.265246	            0.774709	           -0.233013	            0.005581	           -0.255695	           -0.596919	            0.242312	           -0.514757	            0.424081	           -0.733230	           -0.519017	           -0.232311	            0.006130	           -0.833667	           -0.319293	           -0.001624	            0.132087
            2.503000	           -0.227052	           -0.003780	            0.871831	           -0.233013	            0.005581	           -0.255695	           -0.620139	            0.020066	           -0.421706	            0.236058	           -0.550093	           -0.424424	           -0.232311	            0.006130	           -0.833667	           -0.338206	            0.026868	            0.075646
            2.503500	            0.002783	           -0.905850	            1.050821	           -0.233013	            0.005581	           -0.255695	           -0.627279	           -0.146286	           -0.393798	            0.331772	           -1.102367	           -0.379507	           -0.232311	            0.006130	           -0.833667	           -0.300789	            0.074133	            0.113499
            2.504000	           -0.180541	           -0.545551	            1.098678	           -0.233013	            0.005581	           -0.255695	           -0.535627	           -0.137107	           -0.401818	            0.190373	           -0.917220	           -0.801143	           -0.232311	            0.006130	           -0.833667	           -0.338453	            0.093104	            0.057032
            2.504500	           -0.180574	           -0.365285	            1.099451	           -0.233013	            0.005581	           -0.255695	           -0.629652	            0.130933	           -0.400442	            0.279503	            0.371487	           -0.608871	           -0.232311	            0.006130	           -0.833667	           -0.413730	            0.121460	           -0.018236
            2.505000	           -0.135186	           -0.364490	            0.915914	           -0.233013	            0.005581	           -0.255695	           -0.640395	            0.296924	           -0.303758	            0.378540	           -1.101528	           -0.567239	           -0.232311	            0.006130	           -0.833667	           -0.357358	            0.130713	            0.094875
            2.505500	           -0.272437	           -1.266042	            0.958246	           -0.233013	            0.005581	           -0.255695	           -0.660941	            0.352964	           -0.459684	            0.564049	           -0.549243	           -0.330707	           -0.232311	            0.006130	           -0.833667	           -0.338317	            0.064477	            0.132331
            2.506000	           -0.226806	           -0.725039	            0.914595	           -0.233013	            0.005581	           -0.255695	           -0.640569	            0.168200	           -0.477389	            0.516493	           -0.364930	           -0.423886	           -0.232311	            0.006130	           -0.833667	           -0.319334	           -0.001288	            0.037836
            2.506500	           -0.318411	           -0.544988	            0.961452	           -0.233013	            0.005581	           -0.255695	           -0.717843	           -0.025725	           -0.538339	            0.332396	           -1.286180	           -0.474020	           -0.232311	            0.006130	           -0.833667	           -0.188144	            0.084262	            0.038084
            2.507000	           -0.089164	           -0.725209	            0.960110	           -0.233013	            0.005581	           -0.255695	           -0.698777	           -0.099805	           -0.472529	            0.423293	           -0.548077	           -0.799928	           -0.232311	            0.006130	           -0.833667	           -0.300831	            0.083653	            0.094682
            2.507500	           -0.226677	           -0.184635	            1.008626	           -0.233013	            0.005581	           -0.255695	           -0.588186	           -0.081842	           -0.365822	            0.421382	            0.003698	           -0.610245	           -0.232311	            0.006130	           -0.833667	           -0.263244	            0.083654	            0.132367
            2.508000	           -0.042830	           -2.167719	            1.045524	           -0.233013	            0.005581	           -0.255695	           -0.588751	            0.158330	           -0.300507	            0.283491	           -0.733403	           -0.612813	           -0.232311	            0.006130	           -0.833667	           -0.338326	            0.064545	            0.113481
            2.508500	           -0.226384	           -0.545560	            1.098792	           -0.233013	            0.005581	           -0.255695	           -0.685984	            0.315931	           -0.439053	            0.191079	           -1.101703	           -0.707944	           -0.232311	            0.006130	           -0.833667	           -0.319693	            0.102558	            0.075908
            2.509000	           -0.318540	           -1.085392	            0.867421	           -0.233013	            0.005581	           -0.255695	           -0.619682	            0.251431	           -0.499779	            0.282785	           -0.548919	           -0.706012	           -0.232311	            0.006130	           -0.833667	           -0.394586	            0.026866	            0.019119
            2.509500	            0.002181	           -0.724602	            0.822315	           -0.233013	            0.005581	           -0.255695	           -0.655436	            0.075946	           -0.486772	            0.327723	            0.003025	           -0.516349	           -0.232311	            0.006130	           -0.833667	           -0.206674	            0.017890	            0.075556
            2.510000	           -0.226758	           -0.364704	            0.961997	           -0.233013	            0.005581	           -0.255695	           -0.586156	           -0.109493	           -0.384737	            0.139679	            0.186330	           -0.468684	           -0.232311	            0.006130	           -0.833667	           -0.357068	            0.045773	            0.056871
            2.510500	           -0.226498	           -0.545363	            1.052936	           -0.233013	            0.005581	           -0.255695	           -0.702720	           -0.127758	           -0.440914	            0.608076	            0.188858	           -0.703524	           -0.232311	            0.006130	           -0.833667	           -0.432549	            0.130845	           -0.018194
            2.511000	           -0.318214	           -1.626582	            0.956814	           -0.233013	            0.005581	           -0.255695	           -0.698053	           -0.007799	           -0.406686	            0.282826	           -0.549254	           -0.612156	           -0.232311	            0.006130	           -0.833667	           -0.338402	            0.083517	            0.094698
            2.511500	           -0.043791	           -1.265014	            0.728398	           -0.233013	            0.005581	           -0.255695	           -0.707521	            0.196075	           -0.488063	            0.285567	           -1.286517	           -0.427072	           -0.232311	            0.006130	           -0.833667	           -0.319710	            0.102692	            0.038207
            2.512000	           -0.135674	           -0.183438	            0.733263	           -0.233013	            0.005581	           -0.255695	           -0.576567	            0.334226	           -0.378955	            0.280791	            0.003526	           -0.704041	           -0.232311	            0.006130	           -0.833667	           -0.300780	            0.064882	            0.056915
            2.512500	           -0.272389	           -0.905707	            1.005648	           -0.233013	            0.005581	           -0.255695	           -0.475294	            0.241919	           -0.423037	            0.185803	            0.371149	           -0.608831	           -0.232311	            0.006130	           -0.833667	           -0.300635	            0.027004	            0.075630
            2.513000	           -0.181404	           -0.183643	            0.779233	           -0.233013	            0.005581	           -0.255695	           -0.728701	            0.066199	           -0.400480	            0.284758	           -1.101197	           -0.754912	           -0.232311	            0.006130	           -0.833667	           -0.319557	            0.064747	            0.075773
